# xmcd
#
# Track frame offsets: 
#        150
#        17543
#        38200
#        57664
#        71836
#        88267
#        103435
#        117384
#        136752
#        152756
#        169828
#
# Disc length: 2529 seconds
#
# Revision: 0
# Processed by: cddbd v1.5.2PL0 Copyright (c) Steve Scherf et al.
# Submitted via: ExactAudioCopy v0.99pb5
#
DISCID=9d09df0b
DTITLE=Terri Clark - The Long Way Home
DYEAR=2009
DGENRE=Country
TTITLE0=Gypsy Boots
TTITLE1=If You Want Fire
TTITLE2=A Million Ways To Run
TTITLE3=What Happens In Vegas (Follows You Home)
TTITLE4=Merry Go Round
TTITLE5=The One You Love (Feat. Vince Gill)
TTITLE6=Poor Girls Dream
TTITLE7=If I Could Be You
TTITLE8=Tough With Me
TTITLE9=You Tell Me (Duet With Johnny Reid)
TTITLE10=Gypsy Boots (Acoustic Demo Version)
EXTD=
EXTT0=
EXTT1=
EXTT2=
EXTT3=
EXTT4=
EXTT5=
EXTT6=
EXTT7=
EXTT8=
EXTT9=
EXTT10=
PLAYORDER=
